<svg xmlns="http://www.w3.org/2000/svg" version="1.1" xmlns:xlink="http://www.w3.org/1999/xlink" xmlns:svgjs="http://svgjs.dev/svgjs" width="1000" height="1000" viewBox="0 0 1000 1000"><rect width="1000" height="1000" fill="#ffffff"></rect><g transform="matrix(0.7,0,0,0.7,149.84897959183667,150.19913061224486)"><svg viewBox="0 0 343 343" data-background-color="#ffffff" preserveAspectRatio="xMidYMid meet" height="999" width="1000" xmlns="http://www.w3.org/2000/svg" xmlns:xlink="http://www.w3.org/1999/xlink"><g id="tight-bounds" transform="matrix(1,0,0,1,0.0740000000000407,0.07400000000001228)"><svg viewBox="0 0 342.85155851775386 342.85155851775386" height="342.85155851775386" width="342.85155851775386"><g><svg></svg></g><g><svg viewBox="0 0 342.85155851775386 342.85155851775386" height="342.85155851775386" width="342.85155851775386"><g><path d="M0 171.426c0-94.676 76.75-171.426 171.426-171.426 94.676 0 171.426 76.75 171.426 171.426 0 94.676-76.75 171.426-171.426 171.426-94.676 0-171.426-76.75-171.426-171.426zM171.426 327.571c86.237 0 156.145-69.909 156.145-156.145 0-86.237-69.909-156.145-156.145-156.146-86.237 0-156.145 69.909-156.146 156.146 0 86.237 69.909 156.145 156.146 156.145z" data-fill-palette-color="tertiary" fill="#c10000" stroke="transparent"></path><ellipse rx="164.56874808852186" ry="164.56874808852186" cx="171.42577925887693" cy="171.42577925887693" fill="#c10000" stroke="transparent" stroke-width="0" fill-opacity="1" data-fill-palette-color="tertiary"></ellipse></g><g transform="matrix(1,0,0,1,64.84655864529837,86.7046181987986)"><svg viewBox="0 0 213.1584412271571 169.44232212015666" height="169.44232212015666" width="213.1584412271571"><g><svg viewBox="0 0 213.1584412271571 169.44232212015666" height="169.44232212015666" width="213.1584412271571"><g><svg viewBox="0 0 213.1584412271571 169.44232212015666" height="169.44232212015666" width="213.1584412271571"><g><svg viewBox="0 0 213.1584412271571 169.44232212015666" height="169.44232212015666" width="213.1584412271571"><g id="textblocktransform"><svg viewBox="0 0 213.1584412271571 169.44232212015666" height="169.44232212015666" width="213.1584412271571" id="textblock"><g><svg viewBox="0 0 213.1584412271571 169.44232212015666" height="169.44232212015666" width="213.1584412271571"><g transform="matrix(1,0,0,1,0,0)"><svg width="213.1584412271571" viewBox="1.15 -25 31.450000000000003 25" height="169.44232212015666" data-palette-color="#ffffff"><path d="M26.35-25L32.3-25Q32.6-19.75 32.6-13.93 32.6-8.1 32.1 0L32.1 0 27.3 0Q17.6-5.2 9.5-14.15L9.5-14.15Q9.9-10.8 9.9-7.28 9.9-3.75 9.65 0L9.65 0 3.8 0Q4.8-6.15 4.8-11.38 4.8-16.6 4.3-19.65L4.3-19.65Q2.3-22.65 1.15-25L1.15-25 15.35-25Q17.45-21.4 21.08-17.57 24.7-13.75 28-11.6L28-11.6Q28-18.9 26.35-25L26.35-25Z" opacity="1" transform="matrix(1,0,0,1,0,0)" fill="#ffffff" class="wordmark-text-0" data-fill-palette-color="quaternary" id="text-0"></path></svg></g></svg></g></svg></g></svg></g><g></g></svg></g></svg></g></svg></g></svg></g><defs></defs></svg><rect width="342.85155851775386" height="342.85155851775386" fill="none" stroke="none" visibility="hidden"></rect></g></svg></g></svg>